# xmcd
#
# Track frame offsets:
#	150
#	10417
#	19025
#	29497
#	41780
#	53847
#	66522
#	77960
#	86435
#	96772
#
# Disc length: 1414 seconds
#
# Revision: 1
# Processed by: cddbd v1.5.2PL0 Copyright (c) Steve Scherf et al.
# Submitted via: audiograbber 1.82.02
#
DISCID=7f05840a
DTITLE=Johnny Cash - Inducted Into The Hall Of Fame
DYEAR=1980
DGENRE=Country
TTITLE0=Hey Porter
TTITLE1=Guess Things Happen That Way
TTITLE2=Ways of a Woman in Love
TTITLE3=You're the Nearest Thing to Heaven
TTITLE4=Thanks a Lot
TTITLE5=Give My Love to Rose
TTITLE6=Oh, Lonesome Me
TTITLE7=Sugartime
TTITLE8=Goodbye Little Darling
TTITLE9=Down the Street to 301
EXTD=
EXTT0=
EXTT1=
EXTT2=
EXTT3=
EXTT4=
EXTT5=
EXTT6=
EXTT7=
EXTT8=
EXTT9=
PLAYORDER=
